# xmcd
#
# Track frame offsets: 
#        150
#        31343
#        57564
#        62007
#        103588
#        128464
#        158183
#        199064
#        247717
#        273755
#
# Disc length: 4073 seconds
#
# Revision: 0
# Processed by: cddbd v1.5.2PL0 Copyright (c) Steve Scherf et al.
# Submitted via: ExactAudioCopy v0.99pb4
#
DISCID=7d0fe70a
DTITLE=Rory Gallagher - 1992.12.15 Amsterdam, Holland (Playing My Hear
DTITLE=t Out) Disc 1
DYEAR=1992
DGENRE=Blues
TTITLE0=Continental Op
TTITLE1=Moonchild
TTITLE2=Introduction
TTITLE3=Mean Disposition
TTITLE4=The Loop
TTITLE5=Don't Start Me Talkin'
TTITLE6=Tattoo'd Lady
TTITLE7=I Wonder Who
TTITLE8=Kickback City
TTITLE9=Nadine
EXTD=
EXTT0=
EXTT1=
EXTT2=
EXTT3=
EXTT4=
EXTT5=
EXTT6=
EXTT7=
EXTT8=
EXTT9=
PLAYORDER=
